<svg xmlns="http://www.w3.org/2000/svg" viewBox="0 0 100 100">
  <defs>
    <linearGradient id="g1" x1="0%" y1="0%" x2="100%" y2="100%">
      <stop offset="0%" stop-color="#004d00"/>
      <stop offset="100%" stop-color="#006400"/>
    </linearGradient>
    <linearGradient id="g2" x1="0%" y1="0%" x2="0%" y2="100%">
      <stop offset="0%" stop-color="#e0c56e"/>
      <stop offset="100%" stop-color="#C9A84C"/>
    </linearGradient>
  </defs>
  <path d="M50 4 L90 18 L90 52 C90 72 72 88 50 96 C28 88 10 72 10 52 L10 18 Z" fill="url(#g1)" stroke="#C9A84C" stroke-width="3"/>
  <rect x="32" y="38" width="36" height="26" rx="2" fill="url(#g2)" opacity="0.95"/>
  <line x1="50" y1="38" x2="50" y2="64" stroke="#006400" stroke-width="1.5"/>
  <rect x="34" y="40" width="14" height="22" rx="1" fill="#fffbe6"/>
  <rect x="52" y="40" width="14" height="22" rx="1" fill="#fffbe6"/>
  <circle cx="50" cy="34" r="5" fill="#C9A84C"/>
  <rect x="49" y="22" width="2" height="10" fill="#C9A84C"/>
  <polygon points="50,18 48,22 52,22" fill="#e0c56e"/>
  <text x="50" y="85" text-anchor="middle" font-family="serif" font-weight="bold" font-size="11" fill="#C9A84C" letter-spacing="1">GHS</text>
</svg>
